<svg version="1.0" xmlns="http://www.w3.org/2000/svg"
 width="128.000000pt" height="128.000000pt" viewBox="0 0 128.000000 128.000000"
 preserveAspectRatio="xMidYMid meet">

<g transform="translate(0.000000,128.000000) scale(0.100000,-0.100000)"
fill="#000000" stroke="none">
<path d="M505 1264 c-244 -52 -438 -249 -489 -497 -20 -96 -20 -158 0 -254 64
-311 354 -534 664 -510 502 39 768 603 477 1009 -148 206 -403 304 -652 252z
m280 -49 c73 -19 169 -66 220 -107 l37 -31 -93 -93 c-74 -74 -97 -92 -115 -88
-11 3 -37 -1 -57 -9 l-35 -15 5 53 c5 46 1 63 -22 110 -48 100 -90 106 -141
20 -33 -57 -44 -105 -34 -148 l7 -33 -43 14 c-24 8 -50 12 -58 9 -32 -13 -26
-139 10 -194 14 -22 13 -23 -21 -23 -28 0 -36 -4 -40 -23 -7 -27 10 -107 30
-147 l15 -29 -38 -3 c-35 -3 -37 -5 -40 -39 -2 -29 -17 -49 -86 -118 l-83 -83
-32 39 c-112 135 -153 362 -96 541 60 190 223 346 415 396 73 19 221 20 295 1z
m-96 -208 c17 -35 22 -56 17 -81 -7 -37 -46 -101 -61 -100 -17 1 -55 78 -55
112 0 48 42 126 64 119 6 -1 22 -24 35 -50z m481 -102 c41 -84 60 -165 60
-265 0 -169 -51 -292 -175 -416 -121 -122 -244 -174 -415 -174 -136 0 -271 45
-365 122 l-37 31 68 68 c38 38 71 69 75 69 4 0 10 -12 13 -26 4 -14 27 -48 52
-74 55 -59 110 -80 208 -80 145 1 236 76 267 220 16 74 7 100 -35 100 l-34 0
19 51 c12 32 19 70 17 98 -3 44 -5 46 -35 49 l-32 3 20 42 c10 23 19 55 19 72
0 24 19 49 108 138 l107 108 32 -38 c18 -21 46 -65 63 -98z m-630 -77 c50 -34
72 -71 78 -127 4 -47 3 -51 -16 -51 -28 0 -92 57 -108 97 -18 43 -18 103 0
103 7 0 28 -10 46 -22z m210 -43 c-35 -35 -66 -63 -68 -61 -13 14 49 90 93
114 44 25 37 9 -25 -53z m46 -54 c-16 -31 -66 -73 -101 -85 -11 -4 9 22 44 58
36 36 67 64 69 62 2 -2 -4 -18 -12 -35z m-268 -118 c17 -9 32 -16 32 -17 0 -1
-18 -19 -40 -41 l-40 -39 -15 37 c-8 20 -15 48 -15 62 0 29 11 29 78 -2z m317
-10 c-3 -21 -14 -54 -24 -73 -30 -60 -151 -128 -151 -85 0 71 60 157 125 180
57 20 58 19 50 -22z m-171 -15 c-19 -34 -27 -39 -35 -26 -16 24 -9 38 17 38
17 0 23 -4 18 -12z m-65 -69 c14 -40 14 -89 1 -89 -16 0 -90 39 -90 47 0 9 62
73 71 73 4 0 12 -14 18 -31z m-69 -129 c34 -24 80 -112 80 -152 0 -23 -4 -28
-24 -28 -62 0 -136 57 -162 126 -17 44 -17 45 6 69 25 26 47 23 100 -15z m340
13 c0 -32 -33 -109 -58 -136 -33 -37 -136 -75 -148 -56 -10 17 26 117 53 150
29 34 94 68 131 69 17 0 22 -6 22 -27z m-212 -49 l-21 -35 -18 31 c-11 17 -19
33 -19 35 0 3 18 5 40 5 l39 0 -21 -36z"/>
</g>
</svg>
