<svg version="1.0" xmlns="http://www.w3.org/2000/svg"
 width="128.000000pt" height="128.000000pt" viewBox="0 0 128.000000 128.000000"
 preserveAspectRatio="xMidYMid meet">

<g transform="translate(0.000000,128.000000) scale(0.100000,-0.100000)"
fill="#000000" stroke="none">
<path d="M515 1266 c-97 -23 -168 -53 -242 -105 -115 -81 -195 -189 -240 -325
-22 -69 -27 -98 -27 -196 0 -98 5 -127 27 -196 47 -141 131 -252 254 -334 112
-75 210 -104 353 -104 98 0 127 4 197 28 198 65 351 222 415 426 34 109 32
263 -5 376 -47 141 -131 252 -254 334 -135 90 -331 130 -478 96z m270 -51 c73
-19 169 -66 220 -107 l37 -31 -98 -98 -98 -99 -38 37 c-33 32 -36 39 -24 52
26 29 24 83 -4 111 -18 18 -33 20 -138 20 -105 0 -121 -2 -140 -20 -26 -25
-29 -75 -6 -108 15 -22 14 -25 -40 -82 l-56 -59 0 -198 0 -198 -99 -99 -98
-98 -31 37 c-77 94 -122 229 -122 365 0 171 52 294 174 416 87 86 163 131 266
158 73 19 221 20 295 1z m-31 -178 c9 -15 7 -22 -11 -37 -35 -28 -29 -59 22
-110 l45 -45 -185 -185 -185 -185 0 168 0 168 55 58 c58 61 72 105 40 131 -8
7 -15 18 -15 26 0 25 35 34 129 31 78 -2 96 -5 105 -20z m416 -132 c41 -84 60
-165 60 -265 0 -169 -51 -292 -175 -416 -121 -122 -244 -174 -415 -174 -137 0
-272 45 -363 123 l-38 32 81 80 80 80 0 -64 c0 -56 3 -66 29 -92 l29 -29 180
0 c264 0 255 -14 251 397 l-3 274 94 95 95 95 32 -38 c18 -21 46 -65 63 -98z
m-330 -375 c0 -257 -1 -271 -20 -290 -18 -18 -33 -20 -180 -20 -198 0 -200 1
-200 112 l0 73 197 197 c109 109 199 198 200 198 2 0 3 -121 3 -270z"/>
</g>
</svg>
