<svg version="1.0" xmlns="http://www.w3.org/2000/svg"
 width="512.000000pt" height="512.000000pt" viewBox="0 0 512.000000 512.000000"
 preserveAspectRatio="xMidYMid meet">

<g transform="translate(0.000000,512.000000) scale(0.100000,-0.100000)"
fill="#000000" stroke="none">
<path d="M2375 5114 c-367 -37 -644 -113 -932 -253 -276 -135 -460 -268 -688
-496 -232 -232 -364 -416 -501 -700 -117 -243 -191 -487 -231 -760 -26 -181
-24 -534 5 -720 43 -277 114 -500 242 -760 196 -400 496 -741 872 -994 471
-316 1068 -471 1628 -421 505 45 968 227 1370 539 104 80 335 309 416 411 456
577 647 1309 528 2020 -22 132 -76 339 -119 456 -83 227 -247 520 -402 717
-83 107 -344 362 -453 444 -355 265 -745 429 -1173 494 -126 19 -465 33 -562
23z m574 -214 c424 -75 802 -249 1130 -520 l91 -75 -613 -613 -612 -612 -42
297 c-47 335 -57 367 -127 408 -59 33 -824 208 -886 202 -35 -3 -119 -45 -390
-196 -190 -106 -362 -204 -383 -217 -44 -29 -76 -90 -77 -145 0 -20 31 -261
70 -535 51 -364 75 -510 90 -541 34 -73 61 -84 425 -168 182 -41 333 -76 338
-78 4 -1 -253 -262 -571 -580 l-577 -577 -61 72 c-311 371 -503 814 -553 1280
-14 125 -14 391 0 516 117 1083 969 1951 2056 2097 164 21 530 14 692 -15z
m1449 -843 c257 -311 442 -724 507 -1137 23 -143 31 -447 15 -596 -56 -550
-292 -1047 -685 -1439 -355 -356 -772 -572 -1285 -666 -139 -26 -475 -36 -632
-20 -499 54 -935 245 -1336 588 l-32 28 655 655 c360 360 655 650 655 645 0
-6 -20 -117 -45 -247 -52 -271 -52 -291 13 -358 44 -45 706 -457 757 -471 29
-8 105 2 403 56 202 36 396 73 431 81 71 16 123 49 146 94 19 36 206 996 208
1065 2 82 -24 120 -131 190 -192 126 -608 379 -655 399 l-48 20 -133 -22 c-73
-13 -144 -26 -157 -29 -15 -3 220 239 616 636 602 603 641 640 655 622 8 -10
43 -53 78 -94z m-2177 -322 c156 -36 292 -69 301 -73 13 -5 -55 -47 -253 -157
-149 -82 -279 -151 -289 -153 -17 -3 -577 121 -612 136 -12 5 59 50 255 159
150 83 282 152 293 152 12 1 149 -28 305 -64z m516 -521 l43 -299 -43 -43
c-40 -40 -48 -43 -144 -61 -181 -35 -209 -63 -244 -244 -20 -102 -20 -102 -77
-160 -31 -31 -58 -54 -59 -50 -4 12 -122 838 -120 839 37 26 585 323 592 320
5 -1 29 -137 52 -302z m-1155 31 c176 -41 322 -76 323 -77 5 -6 126 -870 123
-877 -3 -8 -652 139 -662 149 -4 5 -126 848 -126 873 0 11 6 10 342 -68z
m2046 -680 c132 -82 240 -151 238 -152 -2 -3 -611 -113 -623 -113 -5 0 -119
69 -255 153 l-247 154 28 27 c25 24 53 31 287 75 l259 48 36 -21 c19 -12 144
-88 277 -171z m-777 -246 c134 -84 248 -155 252 -159 10 -9 -153 -880 -165
-880 -6 0 -489 298 -576 355 -1 1 30 166 68 366 l71 364 51 53 c29 28 53 52
54 52 1 0 112 -68 245 -151z m1116 -106 c-3 -16 -40 -210 -83 -433 -42 -223
-81 -409 -85 -414 -8 -10 -659 -130 -666 -123 -6 7 157 860 167 870 6 7 613
123 659 126 10 1 12 -7 8 -26z"/>
</g>
</svg>
